<?xml version="1.0" encoding="utf-8"?>
<!-- Generator: Adobe Illustrator 19.0.0, SVG Export Plug-In . SVG Version: 6.00 Build 0)  -->
<svg version="1.1" id="Capa_1" xmlns="http://www.w3.org/2000/svg" xmlns:xlink="http://www.w3.org/1999/xlink" x="0px" y="0px"
	 viewBox="-263 64.5 432.5 432.5" style="enable-background:new -263 64.5 432.5 432.5;" xml:space="preserve">
<style type="text/css">
	.st0{fill:#424242;}
</style>
<g>
	<g>
		<path class="st0" d="M-37.6,280.6c59.2,0,107.4-48.2,107.4-107.4C69.9,114,21.7,65.8-37.6,65.8C-96.8,65.8-145,114-145,173.2
			C-145,232.4-96.8,280.6-37.6,280.6z"/>
		<path class="st0" d="M142.5,403.2c-9.2-60.1-40.6-108.4-88.5-136l-3.4-2l-2.7,2.8c-22.6,23.7-53,36.7-85.5,36.7
			c-32.6,0-62.9-13-85.5-36.7l-2.7-2.8l-3.4,2c-25.5,14.7-46.3,35.3-61.5,60.3c8.8-3.2,18.2-5,27.9-5c44.9,0,82.3,37.4,82.3,82.3
			c0,31.3-18.1,58.9-44.3,72.8c27.6,12.1,57,18.4,87.3,18.4c67.7,0,131.3-31.6,179-88.8l1.4-1.7L142.5,403.2z"/>
	</g>
</g>
<path class="st0" d="M-165.8,333.8c-39.2,0-71.8,32.6-71.8,71.8s32.6,71.8,71.8,71.8S-94,444.8-94,405.6S-126.6,333.8-165.8,333.8z
	 M-120.1,412.2h-91.4v-13.1h91.4V412.2z"/>
</svg>
