<?xml version="1.0" encoding="utf-8"?>
<!-- Generator: Adobe Illustrator 19.0.0, SVG Export Plug-In . SVG Version: 6.00 Build 0)  -->
<svg version="1.1" id="Capa_1" xmlns="http://www.w3.org/2000/svg" xmlns:xlink="http://www.w3.org/1999/xlink" x="0px" y="0px"
	 viewBox="-263 64.5 432.5 432.5" style="enable-background:new -263 64.5 432.5 432.5;" xml:space="preserve">
<style type="text/css">
	.st0{fill:#C5C5C5;}
</style>
<g>
	<path class="st0" d="M-18.3,272.4c56.5,0,102.5-46,102.5-102.5C84.3,113.3,38.3,67.3-18.3,67.3c-56.5,0-102.5,46-102.5,102.5
		S-74.8,272.4-18.3,272.4z"/>
	<path class="st0" d="M153.6,389.4c-8.8-57.4-38.8-103.5-84.5-129.8l-3.2-1.9l-2.6,2.7c-21.6,22.6-50.6,35-81.6,35
		c-31.1,0-60.1-12.4-81.6-35l-2.6-2.7l-3.2,1.9c-12.2,7.1-23.4,15.5-33.2,25.3c57.6,0.9,105.2,49.1,105.2,106.9
		c0,31.4-14.1,60-36.2,79.7c16.8,4.4,34.1,6.6,51.8,6.6c64.6,0,125.4-30.2,170.9-84.8l1.3-1.6L153.6,389.4z"/>
</g>
<path class="st0" d="M-147.2,293.7c-54.8,0-100.3,45.5-100.3,100.3s45.5,100.3,100.3,100.3s100.3-45.5,100.3-100.3
	S-92.5,293.7-147.2,293.7z M-83.4,403.2h-127.7v-18.3h127.7V403.2z"/>
</svg>
